# xmcd
#
# Track frame offsets:
# 150
# 17285
# 33610
# 55447
# 76402
# 94310
# 112440
# 131285
# 147277
# 158657
# 179895
#
# Disc length: 2721 seconds
#
#
# Revision: 0
# Processed by: cddbd v1.5.2PL0 Copyright (c) Steve Scherf et al.
# Submitted via: FreeRIP 2.945 
#
DISCID=990a9f0b
DTITLE=Billy Cerveny - A Horse Named Pride
DYEAR=2000
DGENRE=Country
TTITLE0=Traveling On
TTITLE1=Harmony
TTITLE2=When I Breathe
TTITLE3=Laura Lee (Cavin' In)
TTITLE4=Love's Mystery
TTITLE5=As You Lay Sleeping
TTITLE6=A Horse Named Pride
TTITLE7=Vandiveer
TTITLE8=Half a Mile
TTITLE9=Belle of the Ball
TTITLE10=Sail On
EXTD=
EXTT0=
EXTT1=
EXTT2=
EXTT3=
EXTT4=
EXTT5=
EXTT6=
EXTT7=
EXTT8=
EXTT9=
EXTT10=
PLAYORDER=
